<?xml version="1.0" standalone="no"?>
<!DOCTYPE svg PUBLIC "-//W3C//DTD SVG 20010904//EN"
 "http://www.w3.org/TR/2001/REC-SVG-20010904/DTD/svg10.dtd">
<svg version="1.0" xmlns="http://www.w3.org/2000/svg"
 width="475.000000pt" height="475.000000pt" viewBox="0 0 475.000000 475.000000"
 preserveAspectRatio="xMidYMid meet">
<metadata>
Created by potrace 1.14, written by Peter Selinger 2001-2017
</metadata>
<g transform="translate(0.000000,475.000000) scale(0.100000,-0.100000)"
fill="#000000" stroke="none">
<path d="M3183 3532 c-13 -2 -23 -8 -23 -14 0 -5 -5 -8 -12 -6 -11 4 -78 -54
-78 -68 0 -11 -408 -413 -414 -407 -3 3 -8 -2 -12 -11 -3 -9 -10 -16 -16 -16
-12 0 -38 -25 -38 -37 0 -4 -9 -14 -20 -21 -11 -7 -20 -19 -20 -27 0 -8 -4
-15 -10 -15 -5 0 -7 -7 -4 -14 3 -8 1 -21 -5 -28 -41 -48 -54 -67 -75 -112
-13 -28 -27 -69 -31 -91 -12 -70 -11 -208 2 -252 7 -24 10 -43 8 -43 -7 0 77
-153 92 -168 7 -7 13 -20 13 -28 0 -8 8 -14 17 -14 9 0 14 -3 10 -6 -12 -12
92 -118 138 -139 17 -8 41 -17 55 -19 14 -3 25 -5 25 -6 0 -6 57 -6 60 1 3 4
14 5 25 2 12 -3 20 0 20 6 0 7 4 10 9 7 5 -4 20 -2 33 3 12 5 25 8 28 8 3 -1
26 13 51 30 26 18 49 29 53 26 3 -4 6 -1 6 5 0 7 5 12 11 12 12 0 112 70 117
82 2 5 9 8 15 8 7 0 24 11 39 25 15 14 32 25 38 25 6 0 9 4 6 8 -3 5 5 15 18
22 25 13 49 51 55 88 2 13 48 62 58 62 13 0 79 67 122 122 15 20 26 107 14
109 -35 6 -93 3 -93 -5 0 -5 -3 -7 -6 -3 -4 3 -30 -6 -58 -20 -28 -15 -54 -26
-58 -25 -5 1 -8 -3 -8 -9 0 -5 -4 -7 -10 -4 -5 3 -10 1 -10 -4 0 -6 -3 -10 -7
-9 -15 3 -63 -14 -63 -23 0 -5 -6 -9 -14 -9 -8 0 -16 -7 -19 -14 -8 -21 -54
-43 -102 -49 -41 -6 -121 -42 -140 -63 -17 -19 -129 -71 -137 -63 -2 1 -13 -3
-24 -9 -41 -22 -152 -36 -170 -21 -8 6 -12 104 -4 104 1 0 3 11 5 25 3 23 12
70 19 95 2 9 7 20 41 80 6 11 35 57 64 102 29 45 52 84 52 87 0 3 32 39 72 80
40 41 90 95 112 120 22 25 44 46 48 46 4 0 13 5 20 10 47 40 64 51 113 75 77
38 118 40 133 9 6 -14 16 -22 21 -19 6 3 10 1 10 -6 0 -14 50 -59 65 -59 12 1
52 30 41 30 -5 0 -3 6 3 13 6 8 8 17 4 20 -3 4 -2 7 3 7 18 0 7 94 -16 148
-12 28 -26 52 -31 52 -5 0 -9 9 -9 20 0 11 -4 20 -8 20 -5 0 -15 12 -23 27 -8
14 -34 48 -59 74 -45 48 -91 68 -137 61z"/>
<path d="M1907 3514 c-2 -3 -17 -7 -33 -10 -66 -11 -84 -16 -84 -25 0 -6 -4
-8 -9 -4 -5 3 -12 1 -16 -5 -4 -6 -11 -8 -16 -5 -5 4 -9 1 -9 -4 0 -6 -5 -11
-12 -11 -19 0 -148 -103 -141 -113 3 -6 1 -7 -5 -3 -6 3 -15 -2 -21 -11 -6
-10 -11 -14 -11 -10 0 10 -167 -159 -200 -203 -14 -18 -32 -40 -41 -49 -8 -10
-13 -23 -11 -31 3 -7 0 -10 -6 -6 -10 6 -28 -30 -24 -46 1 -5 -6 -8 -15 -8 -9
0 -13 -3 -10 -6 4 -4 -3 -20 -14 -35 -11 -16 -18 -29 -15 -29 4 0 -5 -18 -19
-40 -14 -22 -22 -40 -19 -40 4 0 1 -7 -6 -15 -7 -8 -9 -15 -6 -15 4 0 2 -9 -4
-21 -6 -11 -13 -29 -16 -40 -2 -10 -6 -29 -9 -41 -12 -48 -12 -201 0 -251 13
-55 34 -97 48 -97 4 0 6 -4 3 -8 -3 -5 6 -20 20 -35 13 -14 24 -31 24 -37 0
-6 4 -9 8 -6 5 3 15 -6 22 -19 7 -13 16 -22 20 -20 5 3 10 -1 13 -9 9 -23 97
-70 134 -71 18 -1 36 -5 39 -8 14 -14 92 30 134 74 60 64 72 79 65 79 -4 0 1
7 9 15 9 9 21 34 27 56 7 21 28 57 48 78 33 36 67 76 113 134 125 157 157 179
159 110 1 -21 1 -40 1 -43 0 -3 -3 -39 -8 -80 -4 -41 -7 -87 -7 -102 0 -15 -3
-26 -6 -24 -3 2 -7 -8 -8 -22 -2 -43 -12 -144 -18 -182 -3 -19 -6 -52 -8 -72
-1 -21 -4 -38 -7 -38 -3 0 -6 -12 -5 -27 0 -16 -5 -57 -11 -93 -7 -36 -15 -83
-18 -105 -4 -22 -14 -69 -22 -105 -9 -36 -17 -72 -19 -80 -2 -8 -4 -15 -5 -15
-1 0 -4 -11 -6 -25 -3 -14 -18 -65 -35 -115 -17 -49 -32 -94 -34 -100 -1 -5
-7 -23 -13 -38 -7 -16 -12 -33 -12 -38 0 -5 -4 -9 -8 -9 -4 0 -9 -10 -9 -22
-1 -13 -7 -24 -13 -26 -5 -2 -10 -11 -10 -20 0 -21 -61 -115 -104 -160 -33
-36 -91 -75 -116 -79 -59 -10 -130 -11 -124 -1 4 6 -2 6 -15 -1 -12 -7 -27 -9
-33 -5 -6 4 -23 8 -37 10 -36 3 -53 9 -146 48 -66 29 -83 34 -96 32 -25 -3
-39 -17 -39 -36 0 -24 65 -87 113 -108 20 -9 37 -20 37 -24 0 -5 7 -8 15 -8 8
0 15 -5 15 -11 0 -5 4 -8 9 -4 5 3 17 -2 25 -11 9 -8 16 -13 16 -10 0 4 17 -2
39 -13 21 -11 41 -18 43 -15 5 4 29 -4 83 -27 27 -12 235 -27 235 -16 0 4 9 3
20 -3 11 -6 20 -7 20 -3 0 4 21 7 47 5 45 -3 51 0 96 42 26 25 46 46 43 46 -4
0 2 9 12 19 29 33 42 50 42 56 0 3 9 18 21 34 11 15 21 34 23 42 1 8 20 52 42
99 51 106 62 136 68 180 9 68 18 105 28 118 6 6 7 12 4 12 -4 0 -1 10 6 23 7
12 11 25 10 30 -1 4 2 7 6 7 5 0 9 6 10 13 2 19 26 101 32 107 3 3 6 14 7 25
1 11 4 29 6 40 7 31 17 105 22 170 3 33 8 76 11 95 10 58 18 126 29 235 7 67
15 139 19 165 2 14 7 46 10 72 3 26 9 64 12 85 4 21 8 58 9 83 2 25 4 45 5 45
1 0 3 10 4 23 2 12 -1 22 -6 22 -5 0 -6 6 -1 13 4 6 9 44 10 82 2 39 5 95 6
125 1 30 5 60 7 65 10 19 1 272 -10 283 -1 1 -3 6 -4 12 0 5 -9 19 -18 30 -10
11 -18 24 -18 30 0 5 -13 17 -30 27 -16 9 -30 21 -30 25 0 4 -3 7 -7 6 -5 -1
-17 3 -28 9 -52 28 -153 55 -217 57 -16 1 -28 3 -28 6 0 7 -36 10 -43 4z m3
-335 c0 -11 -19 -51 -29 -59 -3 -3 -17 -27 -31 -54 -14 -26 -31 -50 -37 -53
-7 -3 -11 -8 -8 -13 2 -4 -5 -16 -15 -28 -11 -12 -20 -25 -20 -30 0 -5 -9 -20
-21 -33 -12 -13 -39 -50 -60 -81 -22 -32 -44 -58 -49 -58 -6 0 -10 -6 -10 -13
0 -7 -11 -25 -25 -40 -14 -15 -23 -27 -20 -27 3 0 -6 -12 -20 -27 -14 -16 -28
-36 -31 -45 -3 -10 -10 -18 -15 -18 -5 0 -9 -5 -9 -11 0 -6 -11 -25 -25 -43
-67 -82 -95 -102 -95 -68 0 15 29 114 47 162 9 21 10 28 12 46 0 9 6 12 13 8
6 -4 8 -3 5 3 -10 17 86 193 106 193 6 0 8 3 4 6 -3 3 4 17 16 32 40 48 187
195 187 187 0 -4 8 1 18 12 16 20 89 63 104 63 5 0 8 -5 8 -11z"/>
</g>
</svg>
